<?xml version="1.0" encoding="iso-8859-1"?>
<!-- Generator: Adobe Illustrator 19.0.0, SVG Export Plug-In . SVG Version: 6.00 Build 0)  -->
<svg version="1.1" id="Layer_1" xmlns="http://www.w3.org/2000/svg" xmlns:xlink="http://www.w3.org/1999/xlink" x="0px" y="0px"
	 viewBox="0 0 512.002 512.002" style="enable-background:new 0 0 512.002 512.002;" xml:space="preserve">
<circle style="fill:#006775;" cx="256.001" cy="256.001" r="256.001"/>
<path style="fill:#EDEBFF;" d="M86.991,237.819c0,1.786,0.081,3.107,0.205,4.565c0.068,0.763-0.014,1.622,0,2.385
	c0.027,1.063,0.191,1.09,0.218,2.167c0.15,4.947,0.436,4.906,0.831,8.927c0.081,0.845,0.014,1.403,0.15,2.236
	c0.137,0.845,0.218,1.213,0.381,2.017c0.122,0.613,0.122,1.336,0.245,2.14c0.586,3.803,1.635,8.259,2.603,11.952l0.885,3.898
	c0.164,0.723,0.368,1.144,0.531,1.853l0.777,2.698c0.122,0.45,0.232,0.504,0.381,0.913c0.232,0.64,0.273,1.173,0.531,1.853
	l4.988,13.029c0.177,0.436,0.164,0.491,0.354,0.954l1.117,2.562c1.676,3.339,3.189,6.692,5.056,9.922l0.45,0.845
	c0.218,0.381,0.041,0.027,0.245,0.396l3.871,6.542c1.772,2.725,3.544,5.574,5.506,8.177c0.177,0.232,0.34,0.504,0.531,0.777
	l6.692,8.505c0.041,0.054,0.164,0.191,0.205,0.232l3.461,3.925c0.041,0.041,0.177,0.164,0.218,0.218l6.391,6.637
	c0.041,0.027,0.081,0.068,0.122,0.095l5.929,5.574c0.273,0.259,0.286,0.259,0.586,0.504l15.114,11.597
	c0.041,0.027,0.081,0.068,0.122,0.081l15.81,9.377l18.467,8.028l6.391,2.072c0.64,0.164,0.354,0.095,0.954,0.34
	c0.804,0.34,1.186,0.245,1.908,0.477l3.625,1.144c0.613,0.177,1.281,0.205,1.963,0.423c0.954,0.3,0.927,0.259,2.139,0.464
	c0.586,0.109,1.281,0.436,1.853,0.531c0.927,0.164,1.158,0.137,2.031,0.368s1.049,0.245,2.004,0.381l6.051,1.117
	c0.668,0.137,1.295,0.109,2.167,0.218c0.559,0.068,1.54,0.259,2.222,0.381c4.511,0.777,14.119,1.09,18.453,1.09
	c6.269,0,13.874-0.259,20.089-1.403c1.486-0.273,2.494-0.218,4.17-0.599c1.635-0.381,4.389-0.572,6.133-1.022l7.782-1.772
	c1.662-0.3,3.83-1.131,5.56-1.608l6.242-2.004c0.477-0.164,0.381-0.205,0.927-0.381l1.772-0.613
	c3.898-1.322,7.645-3.04,11.339-4.729l2.099-0.941c0.354-0.178,0.45-0.232,0.723-0.368c0.286-0.15,0.599-0.286,0.872-0.423
	l1.581-0.804c1.117-0.572,2.085-1.022,3.175-1.608c2.657-1.431,5.328-2.848,7.864-4.511l9.785-6.487
	c0.954-0.709,1.758-1.322,2.725-2.044c0.531-0.396,0.845-0.682,1.335-1.063l2.358-1.772c0.15-0.122,0.205-0.164,0.354-0.3
	l7.701-6.637c0.436-0.423,0.75-0.831,1.172-1.213c0.027-0.027,0.081-0.068,0.109-0.109c0.027-0.027,0.081-0.068,0.122-0.095
	l1.567-1.472c0.027-0.027,0.081-0.081,0.109-0.109l1.554-1.486c0.027-0.027,0.081-0.081,0.109-0.109l0.75-0.763
	c0.122-0.122,0.164-0.164,0.327-0.327l0.327-0.327c0.205-0.205,0.3-0.3,0.545-0.545l4.048-4.416
	c2.617-2.971,4.974-6.161,7.523-9.199l0.191-0.232c0.027-0.041,0.068-0.081,0.095-0.122l11.694-17.84
	c0.027-0.041,0.054-0.095,0.081-0.137l5.152-10.045c1.335-2.685,2.276-5.615,3.598-8.341c0.79-1.635,1.308-3.53,1.948-5.22
	c0.655-1.731,1.376-3.516,1.813-5.357c0.736-3.148,2.031-6.133,2.617-9.322l0.885-3.898c0.709-2.508,0.995-5.301,1.608-7.945
	c1.117-4.715,2.031-17.608,2.031-22.065v-5.424c0-3.844-0.627-13.738-1.335-17.772l-1.363-8.19
	c-0.122-0.736-0.409-1.322-0.504-1.881l-1.718-7.836c-0.232-0.709-0.313-1.295-0.491-1.908c-1.349-4.566-2.522-9.05-4.402-13.397
	l-0.3-1.009c-0.122-0.368-0.205-0.504-0.313-0.777c-0.122-0.3-0.205-0.613-0.354-0.954l-3.666-8.491
	c-0.313-0.613-0.504-1.131-0.736-1.649l-10.399-18.249c-0.396-0.586-0.518-0.872-0.941-1.445l-1.144-1.676
	c-0.027-0.041-0.068-0.081-0.095-0.122l-3.666-5.015c-0.027-0.041-0.068-0.081-0.095-0.122l-6.937-8.477
	c-0.396-0.409-0.273-0.313-0.586-0.709l-5.547-5.956c-0.027-0.027-0.081-0.081-0.109-0.109c-0.027-0.027-0.081-0.081-0.109-0.109
	l-2.207-2.14c-0.164-0.164-0.205-0.205-0.327-0.327l-7.496-6.828c-3.612-3.23-7.618-6.01-11.516-8.899
	c-0.041-0.027-0.081-0.068-0.122-0.095c-0.041-0.027-0.081-0.068-0.122-0.095l-12.102-7.645c-3.026-1.826-6.869-3.844-10.167-5.233
	c-0.273-0.122-0.545-0.273-0.872-0.436l-10.985-4.648c-0.396-0.164-0.491-0.164-0.968-0.327c-0.723-0.259-0.899-0.368-1.731-0.655
	l-7.155-2.398c-0.872-0.245-1.049-0.122-1.921-0.477l-9.499-2.439c-2.044-0.286-3.871-0.872-5.942-1.227
	c-0.831-0.15-1.459-0.095-2.14-0.259c-3.516-0.818-6.951-0.954-10.562-1.376c-8.109-0.954-19.544-0.914-27.625-0.027
	c-1.445,0.164-3.366,0.205-4.593,0.409l-12.32,2.017c-1.308,0.327-2.698,0.613-4.034,0.954c-0.804,0.205-1.158,0.177-1.948,0.436
	c-0.872,0.286-0.995,0.232-1.935,0.45c-2.903,0.655-8.163,2.398-11.135,3.407c-0.64,0.218-1.104,0.423-1.786,0.599l-9.813,3.871
	c-0.218,0.095-0.232,0.081-0.464,0.191l-8.204,3.952c-1.131,0.559-2.058,1.036-3.162,1.608l-7.659,4.497
	c-0.218,0.137-0.436,0.259-0.695,0.396l-10.835,7.4c-0.041,0.027-0.081,0.068-0.122,0.095l-6.174,4.907
	c-0.027,0.027-0.081,0.068-0.109,0.109l-6.719,5.874c-0.273,0.3-0.286,0.327-0.518,0.572l-4.443,4.238
	c-0.205,0.205-0.396,0.381-0.545,0.545l-1.117,1.268c-0.014,0.014-0.245,0.245-0.327,0.327l-2.276,2.494
	c-0.054,0.054-0.191,0.191-0.327,0.327l-1.622,1.853c-0.177,0.218-0.054,0.068-0.3,0.34l-0.914,1.036
	c-0.027,0.041-0.068,0.081-0.109,0.109l-0.531,0.559c-2.998,3.475-5.711,7.251-8.314,10.998l-2.957,4.211
	c-0.409,0.572-0.491,0.899-0.899,1.486l-1.594,2.535c-0.177,0.3-0.068,0.095-0.245,0.396l-1.39,2.303
	c-0.177,0.3-0.3,0.545-0.464,0.845l-3.734,6.896c-0.191,0.396-0.245,0.518-0.436,0.872l-2.385,5.002
	c-1.227,2.725-2.236,5.751-3.53,8.409c-0.599,1.213-0.899,2.725-1.472,3.952l-3.339,10.562c-0.913,3.162-2.617,10.494-3.067,13.86
	c-0.081,0.559-0.273,1.295-0.423,1.963l-0.831,6.555c-0.095,1.281-0.477,2.916-0.613,4.17l-0.245,4.743
	c-0.027,1.117-0.164,1.213-0.218,2.167c-0.041,0.777,0.041,1.622,0,2.385l-0.218,4.77L86.991,237.819z"/>
<path style="fill:#D4D4E6;" d="M272.75,132.156c-7.005,0.205-16.341,1.718-18.371,9.05c-0.968,3.502,0.164,5.233,0.954,8.109
	c-1.417,0.205-2.426,0.777-3.612,0.982c-4.103,0.723-7.645,0.845-10.086,4.238c-2.317,3.216-2.085,6.078-0.954,8.491
	c-0.682,0.34-1.335,0.695-1.99,1.077c-1.635-3.202-5.138-5.506-9.404-4.661c-8,1.567-6.501,11.08-2.671,16.109
	c-1.921,2.93-3.434,6.161-4.456,9.608c-1.486,1.99-1.867,5.37-1.431,8.627c-0.027,0.531-0.041,1.063-0.041,1.594
	c0,4.13,0.695,8.109,1.977,11.802c-3.693,1.622-1.24,6.119,3.23,6.896c1.431,2.371,3.135,4.565,5.069,6.542
	c-0.095,0.027-0.177,0.054-0.273,0.068c-1.445-1.459-2.14-2.794-5.002-3.053c-2.657-0.245-3.939,0.927-5.342,2.903
	c-3.175,4.484-5.587,13.452-1.363,18.562c1.117,1.363,3.257,2.916,5.002,3.285c5.629,1.2,5.902-7.141,7.782-8.654
	c3.189,0.75,3.285,1.527,7.577,0.79c2.576-0.436,4.62-1.403,6.269-2.617c0.559-0.409,1.077-0.995,1.513-1.689
	c2.562,0.709,5.233,1.144,7.987,1.281c0.232,3.966,1.786,5.86,4.839,7.223c7.442,3.326,14.337-2.112,16.886-6.201
	c1.908-3.067,2.644-6.024,2.522-8.832c2.058-1.649,3.952-3.516,5.615-5.56c3.162,4.852,6.051,10.453,8.491,16.15
	c0.464,1.84,1.063,3.625,1.718,5.26c1.704,4.306,1.39,1.662,1.172,5.342c-2.344-0.354-3.257-1.308-6.078,0
	c-5.86,2.712-6.201,10.93-2.753,15.346c4.102,5.261,11.748,2.63,13.342-3.898c0.259-1.063,0.354-1.908,0.327-2.671
	c2.957,4.893,5.846,3.803,13.493,5.152c0.081,0.599,0.177,1.227,0.3,1.921c-5.384-0.177-9.526,1.54-12.552,5.438
	c-0.885,1.144-1.649,2.998-2.29,3.72c-4.511,0.081-1.689-0.273-4.497-2.153c-0.763-0.518-1.921-1.173-2.957-1.403
	c-2.426-0.531-5.328,0.396-7.251,1.322c-9.512,4.607-8.654,16.968-6.037,25.635c0.982,3.257,2.331,6.215,4.006,9.023
	c0.559,0.927,1.363,1.894,1.826,2.821c-0.899,2.48-1.104,3.475-1.104,6.337l-2.889-0.027c-2.358-3.312-0.491-3.202-0.396-6.092
	c0.041-1.499-0.259-2.303-0.831-3.339c-0.572-1.036-0.436-2.481-1.173-3.162c-1.54-1.445-4.797-0.995-6.706-0.218
	c-7.809,3.202-4.116,13.424-5.042,14.937c-0.914,1.499-4.934,5.206-6.391,6.188c-2.14,1.445-4.675,0.613-7.632,0.872
	c-18.971,1.704-14.092,22.311-10.399,24.599c3.857,2.398,9.813,0.396,12.892-2.194c1.158-0.968,3.175-2.943,3.952-4.497
	c3.925,0.218,6.569,0.831,10.849,0.586c3.312-0.191,6.61-1.022,9.023-2.439c2.876-1.689,3.612-3.012,4.974-6.528
	c1.445-3.734,1.676-5.574,1.24-10.017c3.734-0.436,2.453,0.464,5.397,1.268c1.567,0.436,4.797,0.655,6.528,0.627
	c4.389-0.081,7.496-2.93,9.09-5.452c2.017-3.189,2.93-7.618,1.799-11.939c-1.322-5.069-3.326-6.051-6.147-8.436
	c0.137-1.718,0.259-2.862,0.313-4.702c1.977,0.081,2.957,0.014,4.715-0.45c1.144,0.954,1.431,1.772,2.93,2.876
	c3.803,2.781,9.636,3.162,13.874,1.281c5.424-2.398,5.233-5.125,6.76-7.782c0.464-0.818,0.668-1.2,0.914-2.126
	c0.545-2.058,0.34-3.434-0.137-5.37c5.479-1.459,4.648-4.306,5.86-6.515c0.245-0.45,0.682-0.668,1.077-1.077
	c1.799-1.867,2.971-4.062,3.475-6.924c0.245-1.403,0.218-2.426,0.095-3.871c-0.109-1.431,0.64-1.554,1.322-2.753
	c2.999-5.301,2.058-15.033-4.593-17.172c-2.984-0.954-4.538,0.313-6.392,1.349l0.068-7.332c0.927-0.763,1.908-0.504,3.72-2.276
	c1.268-1.227,1.403-2.29,2.222-3.979c1.172,3.925,3.135,7.836,8.082,7.537c4.048-0.245,6.909-4.252,7.237-8.436
	c0.572-7.127-5.956-13.234-11.666-9.009c-2.276,1.676-1.948,2.808-3.38,4.675c-0.245-0.981-0.423-1.881-0.845-2.835
	c-0.436-1.009-0.941-1.554-1.363-2.466c1.472-0.545,3.257-2.466,1.799-4.484c-1.363-1.894-2.644-1.403-5.042-2.153
	c0.014-5.069,2.112-4.648,2.889-11.23c1.472-12.43-4.688-22.12-17.418-21.602c-1.676,0.068-1.486,0.45-2.957-0.245
	c0.205-3.761,0.709-5.288-1.049-8.708c-1.022-1.963-3.394-4.58-5.411-5.274c0.599-2.562,9.349-15.046,0.205-21.206
	c-3.421-2.303-7.087-2.876-11.148-0.723c-3.366,1.772-4.866,5.152-4.715,10.058l-7.019-0.682c0.491-2.426,4.048-6.296-0.381-13.833
	c-0.845-1.459-1.826-2.412-2.508-3.625c14.187-2.167,2.848-16.94-7.782-11.052c-3.271,1.813-3.612,3.394-3.312,8.095L272.75,132.156
	z M159.005,161.499c-3.979,0.79-1.908,4.334,1.772,3.571C164.348,164.321,162.685,160.777,159.005,161.499z M182.556,163.734
	c-3.475,1.117-1.853,6.051,1.527,5.098C187.421,167.877,185.977,162.63,182.556,163.734z M294.705,327.919
	c-3.04-1.213-3.544,1.84-5.643,4.279c-0.586,0.668-0.858,1.622-0.177,2.412c0.518,0.586,3.326,1.186,5.083-0.981
	C294.937,332.43,295.346,329.581,294.705,327.919z M215.359,245.588c-4.265,1.853-1.99,9.145,2.017,7.55
	c1.403-0.559,2.466-2.725,2.017-4.866c-0.354-1.689-1.894-3.612-4.02-2.685h-0.013V245.588z M170.835,161.554
	c-6.487,1.39-3.666,8.518,2.398,7.251c2.004-0.423,4.361-2.194,3.366-4.756C175.905,162.236,173.274,161.036,170.835,161.554z
	 M189.861,167.687c1.363,2.794,6.978,4.157,10.372,2.535c5.438-2.617-1.635-5.902-4.265-6.037c-2.576-0.137-5.26,1.445-6.119,3.502
	L189.861,167.687L189.861,167.687z M224.286,252.702c13.302,1.499,7.659,17.513-5.288,13.792c0.599,1.022,2.153,2.207,3.257,2.767
	c1.649,0.831,3.012,0.655,4.866,0.15c3.271-0.899,5.56-2.848,6.801-5.357c2.331-4.715,0.531-10.849-4.143-11.856
	c-2.331-0.504-3.448,0.137-5.492,0.518v-0.013H224.286z M322.889,304.314c-8.381,1.745-10.644,12.565-4.92,12.171
	c2.821-0.191,5.357-3.298,6.46-5.152C326.392,308.02,326.31,303.591,322.889,304.314z M295.986,128.273
	c-5.67,1.662-4.702,12.716,4.934,9.118c2.943-1.104,5.411-2.725,2.712-5.956c-1.281-1.54-4.334-4.13-7.659-3.162H295.986z
	 M237.438,116.334l-8.177-0.259c7.359,3.68,15.891,3.571,23.863,1.295c14.569-4.17,7.809-10.072-0.068-10.971l1.063,0.982
	c0.777,0.586,2.48,2.249,2.698,3.448c1.009,5.492-16.177,5.506-19.366,5.506L237.438,116.334L237.438,116.334z M344.655,192.559
	c-5.711,1.459-4.593,17.677,1.186,16.232c2.63-0.655,3.83-5.37,3.693-8.764C349.397,197.015,347.83,191.755,344.655,192.559z
	 M242.739,238.215c-8.273,2.207-9.349,11.68-7.278,13.274c3.312,2.549,11.325,0.531,13.955-6.269
	C251.339,240.232,247.632,236.907,242.739,238.215z M209.635,162.589c-10.03,1.758-5.233,12.675-0.014,16.614
	c2.453,1.853,3.844,2.14,6.855,0.736C230.665,173.383,219.584,160.845,209.635,162.589z M116.756,224.259
	c-2.249,0.3-2.207,0.232-3.312,1.581c-2.794,3.448-3.012,7.005-0.804,10.835c1.758,3.053,6.706,7.659,11.912,7.769
	c3.407,0.068,4.211-1.908,4.934-4.743c0.723-2.781,0.804-6.024-0.041-8.764C127.864,225.853,123.353,223.387,116.756,224.259z
	 M216.368,145.663c-1.963-0.599-4.688-1.459-6.787-0.396c-4.988,2.535-2.004,10.235,3.366,8.6c2.167-0.668,3.72-2.317,4.484-4.225
	c1.594,1.417,3.571,5.547,10.44,5.86c4.402,0.205,10.698-0.545,14.078-2.412c11.748-14.596-16.245-24.205-23.932-10.903
	C216.668,143.618,217.063,144.518,216.368,145.663z M333.806,178.426c1.268-1.063,2.058-6.773,2.099-8.791
	c0.122-6.037-2.535-11.121-7.442-14.201c-2.017-1.268-5.929-2.808-8.994-2.14c-2.412,0.531-2.398,6.242-2.194,8.735
	c0.723,9.104,5.846,16.382,16.531,16.382V178.426z M140.47,288.341c-5.643,0.682-9.268,2.657-10.358,7.796
	c-1.295,6.133,3.475,18.031,6.256,20.784c1.403,1.39,3.026,2.876,4.934,4.184c4.13,2.835,9.131,3.571,15.06,2.522
	c5.86-1.036,9.24-1.921,10.262-7.714c0.927-5.288-1.172-10.671-3.243-14.501c-3.612-6.678-11.435-14.46-22.896-13.083
	L140.47,288.341z"/>
<g>
	<path style="fill:#333333;" d="M302.624,507.762c3.257-23.387-5.138-36.934-2.371-72.872c0.531-6.965,2.671-40.15,2.671-40.15
		s9.023-3.775,5.274-19.298c-3.748-15.523-62.556-35.843-62.556-35.843l-0.122-0.381c-6.637-0.559-27.966-1.403-27.966-1.403
		l-29.179,0.804c0,0-4.02-0.273-4.81-1.336c-0.804-1.077-4.02-15.932-4.02-15.932s-1.608-8.163-3.216-10.576
		c-1.608-2.412-18.071-6.42-20.075-6.42c-2.004,0-3.884-0.137-3.884-0.137l-18.603,11.38l-1.472-1.2l20.879-15.523l11.502,5.083
		l15.523,5.357l5.888,25.826l10.971-0.941l35.802-1.772l10.617,0.15c-2.685-9.118-6.978-24.572-6.978-30.447
		c0-8.559,6.419-20.334,9.104-24.082c2.671-3.747-11.244-18.194-11.244-18.194s-18.467-18.467-24.095-21.138
		c-5.615-2.671-29.179,2.943-29.179,2.943l-17.936-17.132l19.544,14.446c0,0,22.215-3.68,26.495-3.68s5.956,2.276,6.283,2.603
		c0.34,0.34,16.395,8.967,25.758,20.47c9.363,11.502,11.502,11.912,11.639,19.407c0.137,7.496-3.475,7.632-4.81,8.832
		c-1.335,1.2-6.555,10.44-4.824,18.33c1.745,7.891,13.914,25.962,13.914,27.693c0,1.745,7.496,3.884,21.942,8.559
		c14.324,4.648,33.104,13.615,35.925,19.898c1.894-4.075,5.029-7.319,6.746-10.739c2.29-4.565-1.104-14.801-1.363-15.81
		c-0.245-1.009-6.515-5.506-6.515-5.506l-9.69-3.271l-27.857-16.272c0,0-3.639-4.907-3.461-8.545
		c0.164-3.639-0.504-23.509-0.504-23.509s0.245,0-2.031-2.207c-2.29-2.194-6.174-4.648-5.915-8.286
		c0.245-3.639,2.194-19.544,2.194-19.544l-0.137-10.058c0,0-3.979-1.009-4.661-2.112c-0.682-1.104-3.639-3.979-4.565-4.321
		c-0.927-0.34-23.182-7.441-24.709-12.347c-1.527-4.906-2.371-10.917-2.957-11.843c-0.586-0.927-11.68-19.271-11.68-19.271
		s0-1.867,0.504-12.347c0.381-7.904,0.954-29.274,1.213-39.319l-4.511-2.072l-2.93-2.93l-3.162-6.869c0,0-4.321-2.63-5.098-2.698
		c-0.777-0.081-5.098-0.613-5.098-0.613l-12.975,3.625l-1.24-1.077l11.271-3.326l6.868-1.472l7.645,3.326
		c0,0,3.789,7.332,3.939,7.796c0.109,0.34,3.502,2.085,5.37,3.026l0.054-2.058l1.186-23.005c0,0,0.927-0.927,1.349,1.009
		c0.423,1.948,0.3,7.359,0.3,7.701c0,0.341,0.381,55.332,0.381,55.332s-0.858,9.813-0.259,12.525
		c0.586,2.712,3.38,7.359,5.411,11.08c2.031,3.721,6.337,8.722,8.791,13.533c2.453,4.824,2.712,6.433,3.475,8.627
		s31.128,15.141,32.573,17.09c1.445,1.948,1.689,4.988,1.867,6.773c0.164,1.772-0.927,5.574-1.527,7.278
		c-0.586,1.689-2.671,12.729-1.39,17.308c1.268,4.565,4.988,8.886,6.337,12.525c1.363,3.639,0.34,4.988,0,7.864
		c-0.34,2.876-1.731,10.372,2.59,15.781c4.321,5.41,16.913,10.835,20.47,13.874c3.557,3.04,14.419,4.143,14.419,4.143l-0.218-27.653
		c0,0-3.557-2.876-4.907-4.402c-1.349-1.527-10.998-8.627-10.998-8.627s-13.029-11.843-13.029-13.029s-1.689-16.586-1.689-16.586
		l-0.014-23.768l0.763-13.792l-3.979-5.328c0,0-12.007-11.162-13.193-12.852c-1.186-1.689-4.307-4.225-7.183-3.298
		c-2.876,0.927-10.235,1.853-11.843,0.164s-6.256-7.442-6.256-7.442s1.772-10.235,0.927-12.088c-0.845-1.867-8.804-7.1-9.99-8.967
		c-1.186-1.867-1.867-8.463-1.867-8.463l2.453-0.682l1.527,4.824c0,0,9.813,9.554,10.917,11.421
		c1.104,1.867,1.104,4.661,1.104,7.701c0,3.04,0.259,5.833,2.371,8.041c2.112,2.194,11.257,2.112,14.297,1.948
		c3.053-0.164,6.256-0.259,7.523,1.009c1.267,1.268,5.506,10.917,7.701,12.606c2.194,1.689,8.286,5.929,8.286,5.929l2.535,5.247
		c0,0,1.867-4.907,3.38-8.381c1.527-3.475,5.328-7.359,6.092-8.463c0.763-1.104,1.948-4.743,1.948-4.743s2.453-16.831,3.298-19.87
		c0.845-3.053-1.431-9.894-2.194-12.007c-0.763-2.112-1.349-8.463-1.349-8.463l0.682-12.088l-6.692-18.344
		c0,0-0.164-2.876,1.608-7.359c1.772-4.484,1.867-9.309,1.867-9.309l-5.929-5.751c0,0-1.608-0.504-6.773,0.081
		c-5.165,0.599-4.484-2.876-4.484-2.876s4.484-0.504,7.196-0.504c2.712,0,13.111,3.639,13.711,6.01
		c0.586,2.371,1.186,8.381,1.186,8.886c0,0.505-1.772,5.751-2.753,7.904c-0.968,2.153-1.486,3.298-0.3,6.433
		c1.186,3.135,5.152,14.556,5.152,14.556s0.599,5.751-0.081,9.226c-0.682,3.461,2.031,13.111,2.617,13.955
		c0.586,0.845,2.617,8.449,1.772,13.696c-0.845,5.247-4.756,19.965-4.756,19.965s-8.967,12.525-9.649,17.254
		c-0.682,4.743-0.845,6.596-1.689,12.007s-1.527,5.587-2.371,13.533c-0.845,7.96-2.371,19.625-0.34,23.687s8.123,6.773,8.123,6.773
		s12.266,13.288,13.711,14.214c1.445,0.927,3.298-2.876,3.298-2.876s-0.682-12.689-0.34-14.719
		c0.34-2.031,4.062-10.317,4.062-10.317l-1.867-12.525c0,0-3.639-13.274-3.639-14.801c0-1.527-1.009-21.492,0.34-28.756
		c1.349-7.278,0.164-12.347,5.587-13.369c5.411-1.009,29.098-25.54,29.098-25.54s12.865-25.718,15.06-31.987
		c2.194-6.256,3.053-20.647,3.053-20.647s-2.371-12.184-2.371-19.121c0-6.937,3.557-13.193,3.557-13.193l1.99,0.041
		c0,0-3.598,9.949-3.339,13.193c0.259,3.257,3.598,18.399,3.475,20.348c-0.122,1.948-1.104,6.937-1.144,7.523
		c-0.041,0.599-2.194,14.515-2.29,15.019c-0.081,0.504-3.298,8.204-3.72,9.185c-0.423,0.968-11.38,20.688-11.802,22.255
		c-0.423,1.567-7.537,9.554-7.537,9.554l-20.811,19.544c0,0-1.009,2.535-1.69,3.72c-0.682,1.186-2.207,2.453-2.207,2.453
		l-0.885,11.421c0,0,9.09-12.171,11.38-13.111c2.29-0.927,9.894-7.196,11.761-8.804s27.312-26.058,27.312-26.058
		s2.535-21.996,5.069-25.036c2.535-3.04,10.821-13.696,10.821-18.44c0-4.743,13.029-15.741,13.029-15.741l7.4-0.518l-1.268,1.908
		l-5.67,2.671c0,0-9.595,12.184-9.935,12.565c-0.34,0.381-2.072,11.38-2.072,11.38s-9.226,9.145-9.472,11.339
		c-0.259,2.194-2.617,17.513-2.617,18.699c0,1.186-3.461,6.678-4.648,7.959c-1.186,1.268-7.278,8.286-7.278,8.286
		s-27.748,23.604-28.852,25.295c-1.104,1.689-5.152,5.751-7.359,8.886c-2.194,3.121-2.671,4.947-2.671,4.947l-1.077,11.611
		l2.984,4.675c0,0,11.339-5.915,13.874-6.596s6.092,0.164,7.96,0.504c1.853,0.34,6.773-2.194,7.959-3.557
		c1.186-1.349,11.843-10.317,11.843-10.317s0.081-15.564,1.608-17.431c1.527-1.853,1.349-3.298,3.216-3.298s6.188,0.081,6.855-2.617
		c0.682-2.712,10.276-23.345,10.276-23.345l1.99-6.978l2.331,0.423l-3.898,15.06l-8.627,20.729l-2.712,0.804l-4.143,0.423
		l-2.412,1.186c0,0,0.64,15.182,0.477,15.945c-0.164,0.763-2.371,2.371-3.135,4.062c-0.763,1.689-3.216,3.898-5.083,6.256
		c-1.853,2.371-11.502,7.618-11.584,8.123c-0.081,0.504-6.855,0.682-6.855,0.682s-9.894,1.009-10.235,1.689
		c-0.341,0.681-7.155,6.147-7.155,6.147s1.186,10.876,1.009,12.729c-0.164,1.867-2.031,4.907-2.371,9.309
		c-0.34,4.402-0.34,6.773-0.34,6.773s13.874,1.186,15.905,1.689c2.031,0.504,6.773-0.504,6.773-0.504s6.092-8.967,7.618-9.813
		c1.527-0.845,10.153-6.433,10.153-6.433l6.596-13.369l1.009-7.442l18.78-4.743l-2.821,3.53l-13.806,3.72l0.381,7.046
		c0,0-5.67,11.339-6.596,13.452c-0.927,2.112-6.256,4.661-6.773,5.247c-0.504,0.586-10.153,11.257-10.998,12.77
		c-0.845,1.527-5.411,2.876-5.411,2.876l-7.442-0.845l-15.06-0.682c0,0,0.504,9.813-0.518,13.874
		c-1.009,4.062-0.804,7.931-0.968,11.489c-0.164,3.557-2.031,9.526-1.063,12.538l3.979,12.347c0,0,4.988,7.809,5.997,10.835
		c1.009,3.026,0.477,2.358,0.531,4.006l2.017-1.445c0,0,28.634-23.55,31.319-27.83c2.671-4.279,12.852-9.363,16.859-17.391
		c1.227-2.453,3.107-4.034,5.125-5.042l4.375-23.836c0,0,0.818-3.979,1.104-6.841c0.3-2.862,2.398-6.896,3.04-8.19
		c0.64-1.281,4.429-12.743,4.429-12.743s-1.527-3.04-1.281-5.792c0.232-2.753,2.044-20.28,2.044-20.28s1.581-2.167,3.925-4.211
		c2.344-2.044,4.907-2.453,5.315-3.448c0.409-0.995,9.703-22.678,9.703-22.678s7.659-24.954,5.902-29.983s-5.846-10.412-5.969-11.57
		c-0.122-1.172-0.232-6.433-0.232-6.433l7.959-16.013c0,0,1.99-7.019,0.109-9.349c-1.867-2.344-3.271-7.605-3.271-7.605l1.635,0.763
		c0,0,4.321,5.902,4.797,9.295c0.464,3.394-1.227,9.24-2.222,11.108c-0.995,1.867-2.685,4.034-2.685,4.034l-2.63,10.113l0.927,7.482
		c0,0,4.211,2.916,4.565,9.581c0.354,6.665-2.344,18.181-2.344,18.181l-6.773,21.751l-6.433,14.501c0,0-7.482,4.089-8.068,5.846
		s-0.818,7.019-1.172,8.422c-0.354,1.403,0.464,14.446,0.464,14.446s9.472-16.259,11.339-22.215
		c1.867-5.969,2.453-9.472,5.615-11.23c3.161-1.758,6.078-1.635,11.339-3.857c5.261-2.222,7.359-6.31,7.359-6.31
		s-0.122-6.787,1.527-8.19c1.635-1.403,15.673-2.112,16.831-4.797c1.173-2.685,5.26-9.349,6.201-9.935s19.53-3.502,19.53-3.502
		l-0.941,3.04l-16.831,2.453c0,0-4.321,8.422-6.542,10.058c-2.222,1.635-3.162,1.403-6.31,3.271
		c-3.162,1.867-7.019,0.818-7.945,2.685c-0.941,1.867-1.172,3.516-2.576,7.251s-2.453,4.211-4.089,5.846
		c-1.635,1.635-6.665,0.695-9.827,3.271c-3.162,2.576-7.359,3.502-7.359,5.152c0,1.635,0.232,4.675,0.232,4.675
		s10.876-0.232,13.452-0.122c2.576,0.122,11.462,0.586,11.462,0.586s7.891-1.758,11.162-1.513c3.271,0.232,4.675,3.271,4.675,3.271
		l12.865,3.979l4.907-3.857l1.403,0.818l-5.956,5.846c0,0-8.3-1.635-10.289-2.112c-1.99-0.464-5.506-4.907-9.009-5.029
		c-3.502-0.122-16.013,2.221-17.418,2.221s-10.998-1.281-12.865-0.818c-1.867,0.464-8.3,3.04-8.3,3.04s-3.394,6.201-4.907,9.349
		c-1.527,3.162-7.251,9.009-7.605,10.412c-0.354,1.403-1.99,5.846-2.916,7.251c-0.941,1.403-2.344,5.152-2.344,5.152l16.259-7.482
		c0,0,3.516,3.271,4.797,0.586c1.281-2.685,2.344-7.359,3.271-8.886c0.941-1.527,3.748-1.403,5.384-1.403
		c1.635,0,17.663-11.462,17.663-11.462s5.152-0.464,5.492,1.403c0.354,1.867-0.695,6.665-0.232,7.945
		c0.464,1.281,4.565,9.349,5.492,9.472c0.941,0.122,8.654-0.941,9.827-0.232c1.173,0.695,4.797,7.127,4.797,8.422
		c0,1.281-2.808,0.464-2.808,0.464l-3.04-5.724c0,0-7.836,3.394-9.935,0.464c-2.112-2.916-4.565-3.748-5.384-6.201
		c-0.818-2.453-3.394-6.433-3.271-7.019c0.122-0.586,0.122-4.211,0.122-4.211l-5.956,3.04c0,0-12.048,8.532-12.633,8.654
		c-0.586,0.122-2.808,0.232-3.162,1.527c-0.354,1.281-1.99,5.738-1.99,5.738l-2.808,2.344c0,0-5.029,0.927-5.724,1.281
		c-0.695,0.354-15.196,7.127-15.196,7.127s-3.175,18.958-4.934,29.765c0.504,0.027,0.79,0.054,0.79,0.054l26.549-1.649
		l21.942-11.244c0,0,7.496-2.412,10.971,1.077c3.475,3.475,4.552,5.888,4.552,7.496c0,1.608,26.358,14.119,26.358,14.119
		l14.991,0.273l-0.205,2.535l-14.446,0.205l-28.034-12.852c0,0-2.943-2.671-5.888-5.615c-2.943-2.944-5.888-2.14-5.888-2.14
		l-21.411,10.099l-31.537,7.469l-0.559,2.698c-9.512,2.18-17.172,13.656-22.473,20.593c-6.965,9.104-30.242,37.466-32.382,39.605
		c-2.14,2.139-1.608,11.516-1.608,11.516s-7.496,39.878-8.559,44.702c-1.077,4.81,3.216,11.775,8.832,22.487
		c5.615,10.712,0.804,14.446,0.531,27.299c-0.178,8.368-0.232,23.455-0.027,33.309c-12.293,4.307-24.995,7.714-38.065,10.113h-0.024
		V507.762z"/>
	<path style="fill:#333333;" d="M99.993,186.072l-59.966,12.511c14.801-0.885,37.397,11.475,38.501,20.852
		c15.837-2.044,15.605,2.194,23.604,9.213c14.651-4.715,26.849,4.225,28.988,6.406c5.193,5.315,7.605,8.777,11.421,8.94
		c4.947,0.218,7.51-5.751,12.403-9.377c6.188-4.58,14.937-7.032,23.809-6.501c7.237-6.868,12.511-13.424,27.121-7.701
		c1.117-9.39,22.978-22.732,37.779-21.847l-57.295-12.43c-3.271,11.653-24.164,43.707-30.855,10.849c0,0,2.385-1.977-1.622-8.586
		c-4.006-6.623-7.918,5.574-7.918,5.574c-1.513,0.109-2.808,0.014-3.475,0.599c-0.668-0.586-1.948-0.491-3.475-0.599
		c0,0-3.925-12.184-7.918-5.574c-3.993,6.61-1.622,8.586-1.622,8.586c-6.582,32.354-25.881,1.935-29.492-10.917h0.014V186.072z"/>
</g>
<path style="fill:#FFFF00;" d="M151.959,196.334l-7.782,6.269c0,0,2.957,2.358,6.228,1.063c3.271-1.308,1.567-7.319,1.567-7.319
	L151.959,196.334z"/>
<path style="fill:#FFBA00;" d="M151.959,196.334l-7.782,6.269c0,0,0.027,0.027,0.095,0.068l7.305-4.893
	c0.572,1.908,0.464,3.585-0.245,5.288c1.99-1.977,0.64-6.719,0.64-6.719L151.959,196.334z"/>
<path style="fill:#FFFF00;" d="M133.043,196.334l7.782,6.269c0,0-2.957,2.358-6.228,1.063c-3.271-1.308-1.567-7.319-1.567-7.319
	L133.043,196.334z"/>
<path style="fill:#FFBA00;" d="M133.043,196.334l7.782,6.269c0,0-0.027,0.027-0.095,0.068l-7.305-4.893
	c-0.572,1.908-0.464,3.585,0.245,5.288c-1.99-1.977-0.64-6.719-0.64-6.719L133.043,196.334z"/>
<path style="fill:#333333;" d="M93.588,272.232l-24.872,5.193c6.132-0.368,15.509,4.756,15.973,8.654
	c6.569-0.845,6.474,0.914,9.785,3.83c6.078-1.962,11.135,1.758,12.02,2.657c2.153,2.207,3.162,3.639,4.743,3.707
	c2.058,0.081,3.107-2.385,5.152-3.884c2.562-1.894,6.201-2.916,9.881-2.698c2.998-2.848,5.193-5.574,11.257-3.189
	c0.464-3.898,9.527-9.431,15.673-9.063l-23.768-5.165c-1.363,4.839-10.03,18.14-12.797,4.497c0,0,0.982-0.818-0.668-3.557
	c-1.662-2.74-3.285,2.317-3.285,2.317c-0.627,0.041-1.172,0.014-1.445,0.245c-0.273-0.245-0.804-0.205-1.445-0.245
	c0,0-1.622-5.056-3.285-2.317c-1.662,2.753-0.668,3.557-0.668,3.557c-2.725,13.424-10.739,0.804-12.239-4.524L93.588,272.232z"/>
<path style="fill:#FFFF00;" d="M115.148,276.483l-3.23,2.603c0,0,1.227,0.982,2.59,0.436c1.349-0.545,0.655-3.04,0.655-3.04h-0.014
	V276.483z"/>
<path style="fill:#FFBA00;" d="M115.148,276.483l-3.23,2.603c0,0,0.014,0.014,0.041,0.027l3.026-2.031
	c0.245,0.79,0.191,1.486-0.109,2.194C115.693,278.46,115.148,276.483,115.148,276.483z"/>
<path style="fill:#FFFF00;" d="M107.312,276.483l3.23,2.603c0,0-1.227,0.982-2.59,0.436
	C106.604,278.978,107.312,276.483,107.312,276.483z"/>
<path style="fill:#FFBA00;" d="M107.312,276.483l3.23,2.603c0,0-0.014,0.014-0.041,0.027l-3.026-2.031
	c-0.232,0.79-0.191,1.486,0.109,2.194C106.753,278.46,107.312,276.483,107.312,276.483z"/>
<path style="fill:#333333;" d="M196.416,311.128l-12.239,4.607c4.702-0.327,8.505,6.841,8.859,10.289
	c2.903-1.308,7.809,2.004,8.177,4.988c5.765-1.786,4.565,4.389,6.406,5.533c0,0,0.164,2.562,0.599,2.943
	c0.436,0.396,1.472,2.835,1.704,2.944c0.245-0.027,1.268-2.549,1.704-2.944c0.436-0.396,0.599-2.943,0.599-2.943
	c1.826-1.158,0.64-7.319,6.406-5.533c0.368-2.984,5.274-6.296,8.177-4.988c0.354-3.448,4.429-10.617,9.131-10.289l-12.075-4.58
	c-1.158,4.77-5.328,9.268-9.758,9.404l-1.117-1.376c0.736-1.2,1.268-2.876,1.063-4.034c0,0,0.75-0.723-0.518-3.162
	c-1.268-2.439-2.522,2.044-2.522,2.044c-0.477,0.041-0.899,0.014-1.104,0.218c-0.205-0.218-0.627-0.177-1.104-0.218
	c0,0-1.24-4.484-2.522-2.044c-1.268,2.439-0.518,3.162-0.518,3.162c-0.205,1.158,0.327,2.835,1.063,4.034l-1.117,1.376
	c-4.429-0.137-8.163-4.675-9.322-9.431H196.416z"/>
<path style="fill:#FFFF00;" d="M212.934,314.903l-2.48,2.303c0,0,0.941,0.872,1.977,0.396s0.491-2.698,0.491-2.698L212.934,314.903
	L212.934,314.903z"/>
<path style="fill:#FFBA00;" d="M212.934,314.903l-2.48,2.303c0,0,0.014,0.014,0.027,0.027l2.317-1.799
	c0.177,0.709,0.15,1.322-0.081,1.948c0.627-0.723,0.205-2.48,0.205-2.48L212.934,314.903L212.934,314.903z"/>
<path style="fill:#FFFF00;" d="M206.924,314.903l2.48,2.303c0,0-0.941,0.872-1.977,0.396c-1.036-0.477-0.491-2.698-0.491-2.698
	L206.924,314.903L206.924,314.903z"/>
<path style="fill:#FFBA00;" d="M206.924,314.903l2.48,2.303c0,0-0.014,0.014-0.027,0.027l-2.317-1.799
	c-0.177,0.709-0.15,1.322,0.081,1.948c-0.627-0.723-0.205-2.48-0.205-2.48L206.924,314.903L206.924,314.903z"/>
<path style="fill:#333333;" d="M335.7,253.179l-7.168,2.698c2.753-0.191,4.988,4.006,5.193,6.037
	c1.689-0.777,4.58,1.172,4.797,2.916c3.38-1.049,2.685,2.576,3.748,3.243c0,0,0.095,1.499,0.354,1.731
	c0.259,0.232,0.872,1.662,0.995,1.731c0.15-0.014,0.75-1.499,0.995-1.731c0.259-0.232,0.354-1.731,0.354-1.731
	c1.077-0.682,0.368-4.293,3.747-3.243c0.218-1.745,3.094-3.693,4.797-2.916c0.205-2.031,2.59-6.228,5.357-6.037l-7.073-2.685
	c-0.682,2.794-3.121,5.438-5.724,5.519l-0.655-0.804c0.436-0.695,0.75-1.689,0.627-2.358c0,0,0.45-0.423-0.3-1.853
	c-0.75-1.43-1.472,1.2-1.472,1.2c-0.286,0.027-0.518,0-0.64,0.122c-0.122-0.122-0.368-0.109-0.64-0.122c0,0-0.723-2.63-1.472-1.2
	s-0.3,1.853-0.3,1.853c-0.122,0.682,0.191,1.662,0.627,2.358l-0.655,0.804c-2.589-0.081-4.783-2.74-5.465-5.533L335.7,253.179
	L335.7,253.179z"/>
<path style="fill:#FFFF00;" d="M345.376,255.401l-1.459,1.349c0,0,0.545,0.504,1.158,0.232c0.613-0.286,0.286-1.581,0.286-1.581
	H345.376z"/>
<path style="fill:#FFBA00;" d="M345.376,255.401l-1.459,1.349c0,0,0.014,0,0.014,0.014l1.363-1.063
	c0.109,0.409,0.081,0.777-0.041,1.144C345.622,256.423,345.376,255.401,345.376,255.401z"/>
<path style="fill:#FFFF00;" d="M341.847,255.401l1.459,1.349c0,0-0.545,0.504-1.158,0.232c-0.613-0.286-0.286-1.581-0.286-1.581
	H341.847z"/>
<path style="fill:#FFBA00;" d="M341.847,255.401l1.459,1.349c0,0-0.014,0-0.014,0.014l-1.363-1.063
	c-0.109,0.409-0.081,0.777,0.041,1.144C341.602,256.423,341.847,255.401,341.847,255.401z"/>
<g>
</g>
<g>
</g>
<g>
</g>
<g>
</g>
<g>
</g>
<g>
</g>
<g>
</g>
<g>
</g>
<g>
</g>
<g>
</g>
<g>
</g>
<g>
</g>
<g>
</g>
<g>
</g>
<g>
</g>
</svg>
