<?xml version="1.0" encoding="iso-8859-1"?>
<!-- Generator: Adobe Illustrator 16.0.0, SVG Export Plug-In . SVG Version: 6.00 Build 0)  -->
<!DOCTYPE svg PUBLIC "-//W3C//DTD SVG 1.1//EN" "http://www.w3.org/Graphics/SVG/1.1/DTD/svg11.dtd">
<svg version="1.1" id="Capa_1" xmlns="http://www.w3.org/2000/svg" xmlns:xlink="http://www.w3.org/1999/xlink" x="0px" y="0px"
	 width="611.249px" height="611.249px" viewBox="0 0 611.249 611.249" style="enable-background:new 0 0 611.249 611.249;"
	 xml:space="preserve">
<g>
	<g>
		<path d="M610.975,270.431c0.412-0.867,0.355-1.887-0.153-2.706c-0.514-0.812-1.406-1.305-2.367-1.305H261.047v-16.345
			c0-1.546-1.256-2.802-2.802-2.802h-39.223c-1.52,0-2.801,1.256-2.801,2.802v16.345H2.801c-1.519,0-2.801,1.256-2.801,2.802v72.843
			c0,0.126,0.06,0.274,0.117,0.416c0.033,0.191,0.044,0.4,0.118,0.597c0.073,0.159,0.191,0.345,0.295,0.481
			c0.118,0.121,0.165,0.285,0.315,0.4c0.123,0.164,0.353,0.3,0.555,0.403c0.118,0.066,0.178,0.138,0.295,0.22
			c0.014,0,0.03,0,0.046,0c0.354,0.126,0.707,0.241,1.087,0.241c0.01,0,0.021,0.011,0.033,0.011l0,0l0,0h213.427v16.34
			c0,1.526,1.284,2.802,2.802,2.802h39.223c1.541,0,2.801-1.275,2.801-2.802v-20.302h259.919
			C576.55,340.916,609.598,273.307,610.975,270.431z M147.244,339.276l30.763-67.242h21.831l-30.763,67.242H147.244z
			 M119.227,339.276l30.763-67.242h21.831l-30.764,67.242H119.227z M91.209,339.276l30.765-67.242h21.831l-30.765,67.242H91.209z
			 M63.193,339.276l30.764-67.242h21.831l-30.764,67.242H63.193z M35.177,339.276l30.763-67.242h21.831l-30.763,67.242H35.177z
			 M7.16,339.276l30.764-67.242h21.831L28.99,339.276H7.16z M31.765,272.023L5.603,329.228v-57.204H31.765z M213.861,339.276
			h-38.602l30.764-67.242h7.823L213.861,339.276L213.861,339.276z M255.444,358.426h-33.62V252.877h33.62V358.426z M261.047,272.023
			h342.762c-8.022,14.501-38.315,63.273-82.841,63.273H261.047V272.023z"/>
		<path d="M467.433,286.732H280.658c-1.519,0-2.802,1.256-2.802,2.802c0,1.545,1.283,2.801,2.802,2.801h186.775
			c1.54,0,2.802-1.256,2.802-2.801C470.235,287.988,468.983,286.732,467.433,286.732z"/>
		<path d="M513.647,286.732h-33.141c-1.541,0-2.802,1.256-2.802,2.802c0,1.545,1.261,2.801,2.802,2.801h33.141
			c1.541,0,2.802-1.256,2.802-2.801C516.449,287.988,515.188,286.732,513.647,286.732z"/>
	</g>
</g>
<g>
</g>
<g>
</g>
<g>
</g>
<g>
</g>
<g>
</g>
<g>
</g>
<g>
</g>
<g>
</g>
<g>
</g>
<g>
</g>
<g>
</g>
<g>
</g>
<g>
</g>
<g>
</g>
<g>
</g>
</svg>
